HIERARCHY
ROOT hip
{
  OFFSET -31.4252 76.1681 237.003
  CHANNELS 6 Xposition Yposition Zposition Zrotation Xrotation Yrotation
  JOINT abdomen
  {
    OFFSET 0 20.6881 -0.73152
    CHANNELS 3 Zrotation Xrotation Yrotation
    JOINT chest
    {
      OFFSET 0 11.7043 -0.48768
      CHANNELS 3 Zrotation Xrotation Yrotation
      JOINT neck
      {
        OFFSET 0 22.1894 -2.19456
        CHANNELS 3 Zrotation Xrotation Yrotation
        JOINT head
        {
          OFFSET -0.24384 7.07133 1.2192
          CHANNELS 3 Zrotation Xrotation Yrotation
          JOINT leftEye
          {
            OFFSET 4.14528 8.04674 8.04672
            CHANNELS 3 Zrotation Xrotation Yrotation
            End Site
            {
              OFFSET 1 0 0
            }
          }
          JOINT rightEye
          {
            OFFSET -3.6576 8.04674 8.04672
            CHANNELS 3 Zrotation Xrotation Yrotation
            End Site
            {
              OFFSET 1 0 0
            }
          }
        }
      }
      JOINT rCollar
      {
        OFFSET -2.68224 19.2634 -4.8768
        CHANNELS 3 Zrotation Xrotation Yrotation
        JOINT rShldr
        {
          OFFSET -8.77824 -1.95073 1.46304
          CHANNELS 3 Zrotation Xrotation Yrotation
          JOINT rForeArm
          {
            OFFSET -28.1742 -1.7115 0.48768
            CHANNELS 3 Zrotation Xrotation Yrotation
            JOINT rHand
            {
              OFFSET -22.5879 0.773209 7.07136
              CHANNELS 3 Zrotation Xrotation Yrotation
              JOINT rThumb1
              {
                OFFSET -1.2192 -0.487915 3.41376
                CHANNELS 3 Zrotation Xrotation Yrotation
                JOINT rThumb2
                {
                  OFFSET -3.37035 -0.52449 3.41376
                  CHANNELS 3 Zrotation Xrotation Yrotation
                  End Site
                  {
                    OFFSET -1.78271 -1.18214 1.43049
                  }
                }
              }
              JOINT rIndex1
              {
                OFFSET -7.75947 0.938293 5.60832
                CHANNELS 3 Zrotation Xrotation Yrotation
                JOINT rIndex2
                {
                  OFFSET -2.54057 -0.884171 1.56538
                  CHANNELS 3 Zrotation Xrotation Yrotation
                  End Site
                  {
                    OFFSET -1.62519 -0.234802 1.16502
                  }
                }
              }
              JOINT rMid1
              {
                OFFSET -8.24714 1.18213 3.41376
                CHANNELS 3 Zrotation Xrotation Yrotation
                JOINT rMid2
                {
                  OFFSET -3.10165 -0.590103 1.0647
                  CHANNELS 3 Zrotation Xrotation Yrotation
                  End Site
                  {
                    OFFSET -2.48547 -0.328903 0.83742
                  }
                }
              }
              JOINT rRing1
              {
                OFFSET -8.82822 0.546677 1.51678
                CHANNELS 3 Zrotation Xrotation Yrotation
                JOINT rRing2
                {
                  OFFSET -2.60934 -0.819778 -0.0198488
                  CHANNELS 3 Zrotation Xrotation Yrotation
                  End Site
                  {
                    OFFSET -2.33842 -0.294052 0.168128
                  }
                }
              }
              JOINT rPinky1
              {
                OFFSET -8.27202 -0.0477905 -0.4584
                CHANNELS 3 Zrotation Xrotation Yrotation
                JOINT rPinky2
                {
                  OFFSET -1.82734 -0.647385 -0.700984
                  CHANNELS 3 Zrotation Xrotation Yrotation
                  End Site
                  {
                    OFFSET -1.69225 -0.51767 -0.607171
                  }
                }
              }
            }
          }
        }
      }
      JOINT lCollar
      {
        OFFSET 2.68224 19.2634 -4.8768
        CHANNELS 3 Zrotation Xrotation Yrotation
        JOINT lShldr
        {
          OFFSET 8.77824 -1.95073 1.46304
          CHANNELS 3 Zrotation Xrotation Yrotation
          JOINT lForeArm
          {
            OFFSET 28.1742 -1.7115 0.48768
            CHANNELS 3 Zrotation Xrotation Yrotation
            JOINT lHand
            {
              OFFSET 22.5879 0.773209 7.07136
              CHANNELS 3 Zrotation Xrotation Yrotation
              JOINT lThumb1
              {
                OFFSET 1.2192 -0.487915 3.41376
                CHANNELS 3 Zrotation Xrotation Yrotation
                JOINT lThumb2
                {
                  OFFSET 3.37035 -0.52449 3.41376
                  CHANNELS 3 Zrotation Xrotation Yrotation
                  End Site
                  {
                    OFFSET 1.78271 -1.18214 1.43049
                  }
                }
              }
              JOINT lIndex1
              {
                OFFSET 7.75947 0.938293 5.60832
                CHANNELS 3 Zrotation Xrotation Yrotation
                JOINT lIndex2
                {
                  OFFSET 2.54057 -0.884171 1.56538
                  CHANNELS 3 Zrotation Xrotation Yrotation
                  End Site
                  {
                    OFFSET 1.62519 -0.234802 1.16502
                  }
                }
              }
              JOINT lMid1
              {
                OFFSET 8.24714 1.18213 3.41376
                CHANNELS 3 Zrotation Xrotation Yrotation
                JOINT lMid2
                {
                  OFFSET 3.10165 -0.590103 1.0647
                  CHANNELS 3 Zrotation Xrotation Yrotation
                  End Site
                  {
                    OFFSET 2.48547 -0.328903 0.83742
                  }
                }
              }
              JOINT lRing1
              {
                OFFSET 8.82822 0.546677 1.51678
                CHANNELS 3 Zrotation Xrotation Yrotation
                JOINT lRing2
                {
                  OFFSET 2.60934 -0.819778 -0.0198488
                  CHANNELS 3 Zrotation Xrotation Yrotation
                  End Site
                  {
                    OFFSET 2.33842 -0.294052 0.168128
                  }
                }
              }
              JOINT lPinky1
              {
                OFFSET 8.27202 -0.0477905 -0.4584
                CHANNELS 3 Zrotation Xrotation Yrotation
                JOINT lPinky2
                {
                  OFFSET 1.82734 -0.647385 -0.700984
                  CHANNELS 3 Zrotation Xrotation Yrotation
                  End Site
                  {
                    OFFSET 1.69225 -0.51767 -0.607171
                  }
                }
              }
            }
          }
        }
      }
    }
  }
  JOINT rButtock
  {
    OFFSET -8.77824 4.35084 1.2192
    CHANNELS 3 Zrotation Xrotation Yrotation
    JOINT rThigh
    {
      OFFSET 0 -1.70687 -2.19456
      CHANNELS 3 Zrotation Xrotation Yrotation
      JOINT rShin
      {
        OFFSET 0 -36.8199 0.73152
        CHANNELS 3 Zrotation Xrotation Yrotation
        JOINT rFoot
        {
          OFFSET 0.73152 -45.1104 -5.12064
          CHANNELS 3 Zrotation Xrotation Yrotation
          End Site
          {
            OFFSET -1.1221 -3.69964 12.103
          }
        }
      }
    }
  }
  JOINT lButtock
  {
    OFFSET 8.77824 4.35084 1.2192
    CHANNELS 3 Zrotation Xrotation Yrotation
    JOINT lThigh
    {
      OFFSET 0 -1.70687 -2.19456
      CHANNELS 3 Zrotation Xrotation Yrotation
      JOINT lShin
      {
        OFFSET 0 -36.8199 0.73152
        CHANNELS 3 Zrotation Xrotation Yrotation
        JOINT lFoot
        {
          OFFSET -0.73152 -45.1104 -5.12064
          CHANNELS 3 Zrotation Xrotation Yrotation
          End Site
          {
            OFFSET 1.1221 -3.69964 12.103
          }
        }
      }
    }
  }
}
MOTION
Frames:	6
Frame Time:	0.00833333
-33.6432 78.6718 67.1612 5.24941 -8.66314 -179.568 -6.01469 -0.806309 -0.0242677 -0.368708 -8.46254 0.236223 -27.62 36.9356 -8.17541 63.2382 -37.478 -13.3398 -0 0 0 -0 0 0 -2.05942e-013 1.69648e-013 3.8645e-014 82.0806 16.771 -4.79227 -13.3032 -6.40582 24.162 -0.505678 19.7895 2.89861 2.1272e-009 -1.30823e-009 9.29039e-011 3.6771e-009 -2.24285e-009 1.22476e-010 2.12721e-009 -1.30823e-009 9.28982e-011 7.73091 5.47488 0.417314 2.1272e-009 -1.30823e-009 9.29074e-011 2.90554 0.965183 0.102902 2.12721e-009 -1.30823e-009 9.29016e-011 10.2786 0.731801 0.0259123 2.1272e-009 -1.30823e-009 9.29028e-011 2.22167 -0.733487 -0.20892 -2.06124e-013 1.69651e-013 3.83499e-014 -80.3974 35.6033 5.80443 18.2013 -10.9046 -34.4735 2.32272 -39.0432 6.545 1.53472e-009 1.97705e-009 -4.65005e-010 2.66451e-009 3.40287e-009 -7.54704e-010 1.53472e-009 1.97705e-009 -4.64999e-010 -7.73091 5.47488 -0.417314 1.53473e-009 1.97705e-009 -4.65007e-010 -2.90554 0.965183 -0.102902 1.53472e-009 1.97705e-009 -4.65008e-010 -10.2786 0.731801 -0.0259123 1.53473e-009 1.97705e-009 -4.65013e-010 -2.22167 -0.733487 0.20892 -2.03217e-016 0 -3.88251e-019 -5.51743 -48.4071 0.422049 -0.379303 41.5674 0.668964 -0.215575 1.98091 6.95148 2.03217e-016 0 3.88251e-019 -8.50067 -10.5128 -0.312647 0.0518086 20.1515 -0.381036 -4.58278 -9.87406 -23.0083 
-33.6853 78.5808 67.774 5.41323 -8.55097 -179.545 -6.1769 -0.759625 -0.043898 -0.440121 -8.4143 0.208614 -27.5796 36.9299 -8.18858 63.204 -37.4776 -13.3706 -0 0 0 -0 0 0 -1.97608e-013 1.29774e-013 2.81389e-014 82.1895 16.3822 -4.9826 -13.1344 -6.27662 23.8283 -0.526191 20.1646 2.95839 2.15433e-009 -1.53444e-009 4.5081e-010 3.72973e-009 -2.63853e-009 7.40071e-010 2.15433e-009 -1.53444e-009 4.50806e-010 7.73091 5.47488 0.417314 2.15433e-009 -1.53444e-009 4.50813e-010 2.90554 0.965183 0.102902 2.15433e-009 -1.53444e-009 4.50807e-010 10.2786 0.731801 0.0259123 2.15432e-009 -1.53444e-009 4.50811e-010 2.22167 -0.733487 -0.20892 -1.97802e-013 1.29778e-013 2.78512e-014 -80.5148 35.4029 6.18072 18.1091 -10.8042 -34.2662 2.32338 -39.0476 6.54605 1.55714e-009 1.99958e-009 -6.76679e-010 2.70876e-009 3.4501e-009 -1.12004e-009 1.55714e-009 1.99958e-009 -6.76672e-010 -7.73091 5.47488 -0.417314 1.55714e-009 1.99958e-009 -6.76678e-010 -2.90554 0.965183 -0.102902 1.55713e-009 1.99958e-009 -6.76681e-010 -10.2786 0.731801 -0.0259123 1.55715e-009 1.99958e-009 -6.76684e-010 -2.22167 -0.733487 0.20892 -2.03217e-016 0 -3.88251e-019 -5.91355 -48.3513 -0.0757597 -0.434601 43.9654 0.746878 -0.158936 0.904345 5.80046 2.03217e-016 0 3.88251e-019 -8.76023 -11.1046 -0.296849 0.0494089 20.7148 -0.398415 -4.65452 -10.3712 -22.6033 
-33.7164 78.4865 68.3943 5.52215 -8.46852 -179.551 -6.26687 -0.763058 -0.0677215 -0.51719 -8.36472 0.157787 -27.5607 36.9447 -8.19228 63.1689 -37.4701 -13.4028 -0 0 0 -0 0 0 -1.77371e-013 7.83181e-014 1.92324e-014 82.2832 15.976 -5.19493 -12.9584 -6.14391 23.4809 -0.548152 20.5598 3.02164 1.94711e-009 -1.55907e-009 7.01786e-010 3.37577e-009 -2.68618e-009 1.17716e-009 1.94711e-009 -1.55907e-009 7.01783e-010 7.73091 5.47488 0.417314 1.94711e-009 -1.55907e-009 7.01789e-010 2.90554 0.965183 0.102902 1.94712e-009 -1.55907e-009 7.01784e-010 10.2786 0.731801 0.0259123 1.94711e-009 -1.55907e-009 7.01789e-010 2.22167 -0.733487 -0.20892 -1.77571e-013 7.83231e-014 1.89342e-014 -80.6634 35.1745 6.58489 18.0058 -10.693 -34.0334 2.31802 -39.0116 6.53757 1.46019e-009 1.87693e-009 -8.06038e-010 2.54455e-009 3.24576e-009 -1.34671e-009 1.46019e-009 1.87693e-009 -8.06032e-010 -7.73091 5.47488 -0.417314 1.46019e-009 1.87693e-009 -8.06035e-010 -2.90554 0.965183 -0.102902 1.46019e-009 1.87693e-009 -8.0604e-010 -10.2786 0.731801 -0.0259123 1.4602e-009 1.87694e-009 -8.06042e-010 -2.22167 -0.733487 0.20892 -2.03217e-016 0 -3.88251e-019 -6.27124 -48.2646 -0.580559 -0.496836 46.3399 0.829459 -0.144099 -0.068702 4.78556 2.03217e-016 0 3.88251e-019 -8.96017 -11.7433 -0.288736 0.0485128 21.3032 -0.411806 -4.72219 -10.8366 -22.2404 
-33.7425 78.3925 69.0204 5.56046 -8.42484 -179.599 -6.26352 -0.831558 -0.0971251 -0.603213 -8.31336 0.0669621 -27.5751 36.9899 -8.17925 63.1428 -37.4551 -13.4288 -0 0 0 -0 0 0 -1.31934e-013 -3.48978e-015 1.18118e-014 82.3597 15.5555 -5.43682 -12.7743 -6.00696 23.1185 -0.571644 20.9724 3.08805 1.28645e-009 -1.22551e-009 7.83471e-010 2.23554e-009 -2.11598e-009 1.33e-009 1.28646e-009 -1.22551e-009 7.83464e-010 7.73091 5.47488 0.417314 1.28645e-009 -1.22551e-009 7.83473e-010 2.90554 0.965183 0.102902 1.28646e-009 -1.22551e-009 7.83469e-010 10.2786 0.731801 0.0259123 1.28645e-009 -1.22551e-009 7.83476e-010 2.22167 -0.733487 -0.20892 -1.32131e-013 -3.48424e-015 1.14709e-014 -80.8534 34.91 7.03011 17.8924 -10.5716 -33.7788 2.30512 -38.9241 6.51708 1.1345e-009 1.48079e-009 -8.03978e-010 1.98153e-009 2.56873e-009 -1.35312e-009 1.1345e-009 1.4808e-009 -8.03972e-010 -7.73091 5.47488 -0.417314 1.1345e-009 1.48079e-009 -8.03974e-010 -2.90554 0.965183 -0.102902 1.1345e-009 1.48079e-009 -8.03979e-010 -10.2786 0.731801 -0.0259123 1.13451e-009 1.4808e-009 -8.03982e-010 -2.22167 -0.733487 0.20892 -2.03217e-016 0 -3.88251e-019 -6.58742 -48.1582 -1.1086 -0.566505 48.7038 0.917614 -0.159626 -0.921856 3.90727 2.03217e-016 0 3.88251e-019 -9.087 -12.4422 -0.295087 0.0488153 21.9245 -0.420866 -4.78834 -11.2731 -21.9177 
-33.7609 78.2977 69.6428 5.53703 -8.41286 -179.686 -6.17838 -0.956931 -0.13017 -0.700852 -8.25674 -0.058889 -27.6129 37.058 -8.15404 63.1207 -37.4329 -13.4523 -0 0 0 -0 0 0 -6.4688e-014 -1.21647e-013 3.16503e-015 82.4228 15.1132 -5.70306 -12.5805 -5.86426 22.7388 -0.59732 21.4094 3.15885 2.83974e-010 -6.69923e-010 7.99426e-010 5.03598e-010 -1.16385e-009 1.37539e-009 2.83978e-010 -6.69923e-010 7.99414e-010 7.73091 5.47488 0.417314 2.83971e-010 -6.6992e-010 7.99427e-010 2.90554 0.965183 0.102902 2.8398e-010 -6.69919e-010 7.99424e-010 10.2786 0.731801 0.0259123 2.83972e-010 -6.69917e-010 7.99434e-010 2.22167 -0.733487 -0.20892 -6.48742e-014 -1.21641e-013 2.76124e-015 -81.0741 34.6147 7.5086 17.7652 -10.4362 -33.4962 2.28633 -38.7956 6.48713 6.27263e-010 8.6422e-010 -7.18594e-010 1.10238e-009 1.5117e-009 -1.22096e-009 6.27257e-010 8.64234e-010 -7.1859e-010 -7.73091 5.47488 -0.417314 6.27265e-010 8.64221e-010 -7.1859e-010 -2.90554 0.965183 -0.102902 6.27257e-010 8.64222e-010 -7.18595e-010 -10.2786 0.731801 -0.0259123 6.27269e-010 8.64224e-010 -7.18601e-010 -2.22167 -0.733487 0.20892 -2.03217e-016 0 -3.88251e-019 -6.87549 -48.0355 -1.68523 -0.646289 51.0913 1.01496 -0.195955 -1.64446 3.15388 2.03217e-016 0 3.88251e-019 -9.15236 -13.1946 -0.319085 0.0499838 22.5836 -0.426267 -4.85247 -11.6883 -21.6213 
-33.7783 78.2028 70.2687 5.48072 -8.41749 -179.782 -6.05055 -1.11169 -0.165197 -0.800405 -8.19845 -0.185703 -27.6549 37.1324 -8.12949 63.0837 -37.4038 -13.4875 -0 0 0 -0 0 0 -3.00879e-015 -2.29424e-013 -4.41791e-015 82.4716 14.6482 -5.98009 -12.3794 -5.71822 22.3466 -0.625165 21.8715 3.23417 -6.51064e-010 -1.42574e-010 8.12296e-010 -1.1117e-009 -2.5993e-010 1.41416e-009 -6.51061e-010 -1.42575e-010 8.12279e-010 7.73091 5.47488 0.417314 -6.51069e-010 -1.4257e-010 8.12296e-010 2.90554 0.965183 0.102902 -6.51061e-010 -1.42569e-010 8.12295e-010 10.2786 0.731801 0.0259123 -6.51066e-010 -1.42566e-010 8.12307e-010 2.22167 -0.733487 -0.20892 -3.1825e-015 -2.29418e-013 -4.88148e-015 -81.3057 34.3016 7.99421 17.6234 -10.287 -33.1822 2.26414 -38.6428 6.45162 1.49216e-010 2.76133e-010 -6.24304e-010 2.73375e-010 5.02684e-010 -1.07253e-009 1.49205e-010 2.76155e-010 -6.243e-010 -7.73091 5.47488 -0.417314 1.49217e-010 2.76135e-010 -6.243e-010 -2.90554 0.965183 -0.102902 1.49209e-010 2.76137e-010 -6.24305e-010 -10.2786 0.731801 -0.0259123 1.49218e-010 2.76138e-010 -6.24312e-010 -2.22167 -0.733487 0.20892 -2.03217e-016 0 -3.88251e-019 -7.12723 -47.8682 -2.25106 -0.736964 53.4474 1.1213 -0.240039 -2.27457 2.52861 2.03217e-016 0 3.88251e-019 -9.17918 -13.9757 -0.343396 0.0524783 23.2594 -0.428139 -4.91495 -12.0681 -21.3654 
